<?xml version="1.0" encoding="UTF-8" standalone="no"?>
<!DOCTYPE svg PUBLIC "-//W3C//DTD SVG 1.1//EN" "http://www.w3.org/Graphics/SVG/1.1/DTD/svg11.dtd">
<svg width="100%" height="100%" viewBox="0 0 1600 680" version="1.1" xmlns="http://www.w3.org/2000/svg" xmlns:xlink="http://www.w3.org/1999/xlink" xml:space="preserve" xmlns:serif="http://www.serif.com/" style="fill-rule:evenodd;clip-rule:evenodd;">
    <path d="M1600,30L1600,650C1600,666.557 1586.557,680 1570,680L30,680C13.443,680 0,666.557 0,650L0,30C0,13.443 13.443,0 30,0L1570,0C1586.557,0 1600,13.443 1600,30Z" style="fill:url(#_Linear1);"/>
    <g>
        <path d="M440,90L440,140C440,151.038 431.038,160 420,160L100,160C88.962,160 80,151.038 80,140L80,90C80,78.962 88.962,70 100,70L420,70C431.038,70 440,78.962 440,90Z" style="fill:rgb(233,255,241);stroke:rgb(203,213,225);stroke-width:1px;"/>
        <path d="M1080,90L1080,140C1080,151.038 1071.038,160 1060,160L540,160C528.962,160 520,151.038 520,140L520,90C520,78.962 528.962,70 540,70L1060,70C1071.038,70 1080,78.962 1080,90Z" style="fill:rgb(243,229,255);stroke:rgb(203,213,225);stroke-width:1px;"/>
        <path d="M1520,90L1520,140C1520,151.038 1511.038,160 1500,160L1160,160C1148.962,160 1140,151.038 1140,140L1140,90C1140,78.962 1148.962,70 1160,70L1500,70C1511.038,70 1520,78.962 1520,90Z" style="fill:rgb(241,241,241);stroke:rgb(203,213,225);stroke-width:1px;"/>
    </g>
    <g transform="matrix(1,0,0,1,275,124)">
        <text x="-56px" y="0px" style="font-family:'HiraginoSans-W7', 'Hiragino Sans', sans-serif;font-weight:700;font-size:28px;fill:rgb(21,128,61);">フロント</text>
    </g>
    <g transform="matrix(1,0,0,1,800,124)">
        <text x="-88.508px" y="0px" style="font-family:'HiraginoSans-W7', 'Hiragino Sans', sans-serif;font-weight:700;font-size:28px;fill:rgb(126,34,206);">PHPサーバー</text>
    </g>
    <g transform="matrix(1,0,0,1,1330,124)">
        <text x="-91.793px" y="0px" style="font-family:'Helvetica-Bold', 'Helvetica';font-weight:700;font-size:28px;fill:rgb(51,65,85);">SuperCollider</text>
    </g>
    <g>
        <path d="M480,216L480,634C480,648.35 468.35,660 454,660L96,660C81.65,660 70,648.35 70,634L70,216C70,201.65 81.65,190 96,190L454,190C468.35,190 480,201.65 480,216Z" style="fill:rgb(233,255,241);stroke:rgb(203,213,225);stroke-width:1px;"/>
        <path d="M1055,216L1055,634C1055,648.35 1043.35,660 1029,660L571,660C556.65,660 545,648.35 545,634L545,216C545,201.65 556.65,190 571,190L1029,190C1043.35,190 1055,201.65 1055,216Z" style="fill:rgb(242,227,255);stroke:rgb(203,213,225);stroke-width:1px;"/>
        <path d="M1530,216L1530,634C1530,648.35 1518.35,660 1504,660L1136,660C1121.65,660 1110,648.35 1110,634L1110,216C1110,201.65 1121.65,190 1136,190L1504,190C1518.35,190 1530,201.65 1530,216Z" style="fill:rgb(241,241,241);stroke:rgb(203,213,225);stroke-width:1px;"/>
    </g>
    <path d="M275,190L275,660" style="fill:none;fill-rule:nonzero;stroke:rgb(203,213,225);stroke-width:3px;stroke-dasharray:10,10;"/>
    <path d="M800,190L800,660" style="fill:none;fill-rule:nonzero;stroke:rgb(203,213,225);stroke-width:3px;stroke-dasharray:10,10;"/>
    <path d="M1320,190L1320,660" style="fill:none;fill-rule:nonzero;stroke:rgb(203,213,225);stroke-width:3px;stroke-dasharray:10,10;"/>
    <g>
        <g transform="matrix(1,0,0,1,0,-290)">
            <path d="M445,526L445,582C445,590.831 437.831,598 429,598L121,598C112.169,598 105,590.831 105,582L105,526C105,517.169 112.169,510 121,510L429,510C437.831,510 445,517.169 445,526Z" style="fill:white;stroke:rgb(203,213,225);stroke-width:1px;"/>
        </g>
        <g transform="matrix(1.214188,0,0,1.214188,274.696026,259.215487)">
            <text x="-80.01px" y="0px" style="font-family:'Helvetica-Bold', 'Helvetica';font-weight:700;font-size:20px;fill:rgb(21,128,61);">play</text>
            <text x="-39.99px" y="0px" style="font-family:'HiraginoSans-W7', 'Hiragino Sans', sans-serif;font-weight:700;font-size:20px;fill:rgb(21,128,61);">コマンド送信</text>
        </g>
        <g transform="matrix(1,0,0,1,275,285)">
            <g transform="matrix(16,0,0,16,93.7575,0)">
            </g>
            <text x="-93.757px" y="0px" style="font-family:'Helvetica';font-size:16px;fill:rgb(21,128,61);">{ &quot;type&quot;: <tspan x="-32.996px -27.317px -18.258px " y="0px 0px 0px ">&quot;pl</tspan>ay&quot;, &quot;pad&quot;: &quot;1&quot; }</text>
        </g>
    </g>
    <g>
        <g transform="matrix(1,0,0,1,0,70)">
            <path d="M1015,256L1015,312C1015,320.831 1007.831,328 999,328L601,328C592.169,328 585,320.831 585,312L585,256C585,247.169 592.169,240 601,240L999,240C1007.831,240 1015,247.169 1015,256Z" style="fill:white;stroke:rgb(203,213,225);stroke-width:1px;"/>
        </g>
        <g transform="matrix(1,0,0,1,800,345)">
            <text x="-20px" y="0px" style="font-family:'HiraginoSans-W7', 'Hiragino Sans', sans-serif;font-weight:700;font-size:20px;fill:rgb(126,34,206);">受信</text>
        </g>
        <g transform="matrix(1,0,0,1,796.882812,372)">
            <g transform="matrix(16,0,0,16,93.7575,0)">
            </g>
            <text x="-93.757px" y="0px" style="font-family:'Helvetica';font-size:16px;fill:rgb(126,34,206);">{ &quot;type&quot;: <tspan x="-32.996px -27.317px -18.258px " y="0px 0px 0px ">&quot;pl</tspan>ay&quot;, &quot;pad&quot;: &quot;1&quot; }</text>
        </g>
    </g>
    <g>
        <g transform="matrix(1,0,0,0.759259,0,164.851852)">
            <path d="M1015,356L1015,432C1015,440.831 1007.831,448 999,448L601,448C592.169,448 585,440.831 585,432L585,356C585,347.169 592.169,340 601,340L999,340C1007.831,340 1015,347.169 1015,356Z" style="fill:white;stroke:rgb(203,213,225);stroke-width:1px;"/>
        </g>
        <g transform="matrix(1,0,0,1,800.67,457)">
            <text x="-60.2px" y="0px" style="font-family:'HiraginoSans-W7', 'Hiragino Sans', sans-serif;font-weight:700;font-size:20px;fill:rgb(126,34,206);">OSC (UDP)</text>
        </g>
        <g transform="matrix(1,0,0,1,800,482)">
            <g transform="matrix(16,0,0,16,36.917969,0)">
            </g>
            <text x="-36.918px" y="0px" style="font-family:'Helvetica';font-size:16px;fill:rgb(126,34,206);">/play pad1</text>
        </g>
    </g>
    <g>
        <g transform="matrix(1,0,0,1,0,187)">
            <path d="M1480,356L1480,426C1480,434.831 1472.831,442 1464,442L1176,442C1167.169,442 1160,434.831 1160,426L1160,356C1160,347.169 1167.169,340 1176,340L1464,340C1472.831,340 1480,347.169 1480,356Z" style="fill:white;stroke:rgb(203,213,225);stroke-width:1px;"/>
        </g>
        <g transform="matrix(1,0,0,1,1320,571)">
            <text x="-22px" y="0px" style="font-family:'HiraginoSans-W7', 'Hiragino Sans', sans-serif;font-weight:700;font-size:22px;fill:rgb(51,65,85);">再生</text>
        </g>
        <g transform="matrix(1,0,0,1,1319.963062,598)">
            <text x="-84.02px" y="0px" style="font-family:'Helvetica';font-size:16px;fill:rgb(51,65,85);">pad1</text>
            <text x="-43.98px" y="0px" style="font-family:'HiraginoSans-W4', 'Hiragino Sans', sans-serif;font-size:16px;fill:rgb(51,65,85);">のサンプルを再生</text>
        </g>
    </g>
    <g transform="matrix(-0.485929,0.806163,-0.599118,-0.026009,1012.084044,-91.608265)">
        <g transform="matrix(-0.052478,-1.626558,1.208812,-0.980437,163.849177,1556.397191)">
            <path d="M550.026,335.179L562.931,358.776L538.45,347.642L550.026,335.179Z"/>
            <path d="M462.038,265.052C462.038,265.052 519.886,318.789 547.977,344.884" style="fill:none;stroke:black;stroke-width:2.83px;stroke-linecap:round;stroke-linejoin:round;"/>
        </g>
    </g>
    <g transform="matrix(0.632723,0.774378,-0.774378,0.632723,711.233379,-565.718871)">
        <g transform="matrix(0.632723,-0.774378,0.774378,0.632723,-11.933271,908.706971)">
            <path d="M1124.771,546.095L1136.083,572.211L1111.364,558.105L1124.771,546.095Z"/>
            <path d="M1047.917,473.789C1047.917,473.789 1096.673,528.216 1121.671,556.122" style="fill:none;stroke:black;stroke-width:3px;stroke-linecap:round;stroke-linejoin:round;"/>
        </g>
    </g>
    <g>
        <g transform="matrix(1,0,0,1,-57,-85)">
            <path d="M593,417L593,441C593,446.519 588.519,451 583,451L441,451C435.481,451 431,446.519 431,441L431,417C431,411.481 435.481,407 441,407L583,407C588.519,407 593,411.481 593,417Z" style="fill:white;stroke:rgb(203,213,225);stroke-width:1.5px;"/>
        </g>
        <g transform="matrix(1,0,0,1,455,351)">
            <text x="-53.726px" y="0px" style="font-family:'Helvetica-Bold', 'Helvetica';font-weight:700;font-size:20px;fill:rgb(21,128,61);">W<tspan x="-35.2px -24.077px " y="0px 0px ">eb</tspan>Socket</text>
        </g>
    </g>
    <g>
        <g transform="matrix(1,0,0,1,58,3)">
            <path d="M1158,460L1158,484C1158,489.519 1153.519,494 1148,494L1010,494C1004.481,494 1000,489.519 1000,484L1000,460C1000,454.481 1004.481,450 1010,450L1148,450C1153.519,450 1158,454.481 1158,460Z" style="fill:white;stroke:rgb(203,213,225);stroke-width:1.5px;"/>
        </g>
        <g transform="matrix(1,0,0,1,1137.896484,480)">
            <text x="-52.222px" y="0px" style="font-family:'Helvetica-Bold', 'Helvetica';font-weight:700;font-size:20px;fill:rgb(126,34,206);">OSC (UDP)</text>
        </g>
    </g>
    <defs>
        <linearGradient id="_Linear1" x1="0" y1="0" x2="1" y2="0" gradientUnits="userSpaceOnUse" gradientTransform="matrix(0,680,-680,0,0,0)"><stop offset="0" style="stop-color:rgb(248,250,252);stop-opacity:1"/><stop offset="1" style="stop-color:rgb(238,242,255);stop-opacity:1"/></linearGradient>
    </defs>
</svg>
